<svg width="1750" height="21" viewBox="0 0 1750 21" fill="none" xmlns="http://www.w3.org/2000/svg">
<path d="M6.76563 0.0836409C8.08576 0.346165 8.67081 1.42627 8.67081 2.38636C8.67081 3.34645 8.07826 4.42655 6.76563 4.68907C3.98287 5.24412 0.412539 2.96391 0.262525 2.8664C0.0975091 2.76139 0 2.58137 0 2.38636C0 2.19134 0.0975091 2.01132 0.262525 1.90631C0.397537 1.8163 3.2478 0.00113271 5.84305 0.00113271C6.15057 -0.00636799 6.4656 0.0236353 6.76563 0.0836409ZM6.54061 3.56397C7.26818 3.42145 7.5232 2.8364 7.5232 2.38636C7.5232 1.93631 7.26818 1.35126 6.54061 1.20875C4.93546 0.893717 2.86527 1.7938 1.72516 2.38636C2.86527 2.98641 4.92796 3.8865 6.54061 3.56397Z" fill="#F5F5F5" fill-opacity="0.5"/>
<path d="M1749.41 1.91268C1749.57 2.01769 1749.67 2.19771 1749.67 2.39273C1749.67 2.58774 1749.57 2.76776 1749.41 2.87277C1749.26 2.97028 1745.69 5.24299 1742.91 4.69544C1741.59 4.43292 1741 3.35282 1741 2.39273C1741 1.43264 1741.59 0.352535 1742.91 0.0900105C1743.21 0.0300049 1743.51 0 1743.83 0C1746.42 0 1749.27 1.82267 1749.41 1.91268ZM1743.13 1.21512C1742.4 1.35763 1742.15 1.94268 1742.15 2.39273C1742.15 2.84277 1742.4 3.42782 1743.13 3.57034C1744.74 3.88536 1746.81 2.98528 1747.95 2.39273C1746.8 1.79267 1744.74 0.892585 1743.13 1.21512Z" fill="#F5F5F5" fill-opacity="0.5"/>
<path d="M1739.76 2H9.23654C7.44793 2 6 2.22369 6 2.5C6 2.77632 7.44793 3 9.23654 3H1739.76C1741.55 3 1743 2.77632 1743 2.5C1743 2.22369 1741.55 2 1739.76 2Z" fill="#F5F5F5" fill-opacity="0.5"/>
<path d="M886.583 0.785156C885.652 0.785156 884.715 0.950176 883.807 1.28771L883.575 1.37021C881.782 1.97777 879.562 3.3729 877.649 5.09806C872.684 9.64348 868.168 7.97833 868.123 7.96333C868.101 7.95583 868.078 7.94833 868.056 7.94083C866.323 7.51329 865.266 5.73562 865.693 3.99546C866.016 2.67533 867.351 1.85026 868.663 2.16529C869.143 2.2778 869.578 2.63033 869.826 3.10288C870.193 3.80044 870.178 4.483 869.788 4.97805C869.458 5.40559 868.903 5.59311 868.386 5.4656C868.078 5.39059 867.771 5.57811 867.688 5.88564C867.613 6.19316 867.801 6.50069 868.108 6.5832C869.068 6.82322 870.081 6.47069 870.689 5.69812C871.356 4.85054 871.416 3.68043 870.839 2.58533C870.441 1.82775 869.728 1.2577 868.926 1.06268C866.998 0.605141 865.048 1.79775 864.575 3.73293C863.998 6.08065 865.423 8.45837 867.748 9.05843C868.251 9.23845 873.119 10.8061 878.422 5.96064C880.192 4.36299 882.315 3.02037 883.957 2.46532L884.205 2.37531C886.372 1.57273 888.78 1.91777 890.663 3.2979C892.456 4.61802 893.408 6.6207 893.288 8.78091C893.281 8.95342 893.266 9.11844 893.243 9.29095C893.048 10.8211 892.201 12.1712 890.858 13.0938C888.938 14.4139 886.898 14.5939 885.255 13.5889C883.777 12.6813 882.96 10.9786 883.185 9.24595C883.297 8.35336 883.807 7.53579 884.58 6.99574C885.75 6.17816 886.988 6.05065 887.97 6.6507C888.855 7.18325 889.343 8.20335 889.208 9.23095C889.14 9.756 888.87 10.2285 888.45 10.5511C888.038 10.8661 887.528 11.0086 887.01 10.9411C886.688 10.9036 886.41 11.1211 886.365 11.4362C886.327 11.7512 886.545 12.0362 886.86 12.0812C887.678 12.1862 888.488 11.9687 889.148 11.4662C889.808 10.9561 890.235 10.221 890.34 9.38846C890.535 7.90332 889.83 6.44819 888.563 5.67562C887.19 4.84304 885.457 4.98555 883.92 6.06565C882.885 6.79322 882.202 7.90333 882.045 9.11094C881.767 11.2936 882.787 13.4313 884.655 14.5789C886.665 15.8091 889.23 15.614 891.503 14.0539C893.123 12.9438 894.143 11.3086 894.376 9.44847C894.398 9.25345 894.421 9.05093 894.428 8.85591C894.571 6.29817 893.446 3.93545 891.338 2.38281C889.943 1.32521 888.27 0.785156 886.583 0.785156Z" fill="#F5F5F5" fill-opacity="0.5"/>
<path d="M862.873 0.785156C861.185 0.785156 859.52 1.32521 858.102 2.36031C855.995 3.91295 854.87 6.27567 855.012 8.83341C855.02 9.02843 855.042 9.22345 855.065 9.41846C855.297 11.2786 856.317 12.9138 857.937 14.0239C860.21 15.584 862.775 15.7866 864.785 14.5489C866.653 13.4088 867.673 11.2636 867.396 9.08843C867.238 7.88082 866.556 6.77072 865.521 6.04315C863.99 4.97055 862.25 4.82804 860.878 5.65312C859.602 6.42569 858.905 7.88082 859.1 9.36596C859.205 10.1985 859.632 10.9336 860.293 11.4437C860.945 11.9462 861.763 12.1637 862.58 12.0587C862.895 12.0137 863.113 11.7287 863.075 11.4137C863.038 11.0986 862.753 10.8811 862.43 10.9186C861.913 10.9861 861.403 10.8511 860.99 10.5286C860.57 10.206 860.3 9.741 860.233 9.20845C860.098 8.17335 860.585 7.16075 861.47 6.6282C862.46 6.02815 863.698 6.15566 864.86 6.97323C865.633 7.51329 866.143 8.33836 866.256 9.22344C866.481 10.9561 865.663 12.6588 864.185 13.5664C862.543 14.5714 860.503 14.3914 858.582 13.0713C857.24 12.1487 856.392 10.7986 856.197 9.26845C856.175 9.09594 856.16 8.93092 856.152 8.75841C856.032 6.5907 856.985 4.59551 858.777 3.27539C860.66 1.88776 863.068 1.54273 865.236 2.35281L865.468 2.43531C867.126 2.99787 869.248 4.34049 871.026 5.93814C876.329 10.7836 881.19 9.21594 881.692 9.03593C884.017 8.44337 885.435 6.05815 884.857 3.71043C884.385 1.77525 882.427 0.58264 880.507 1.04018C879.712 1.2277 878.992 1.79775 878.594 2.56282C878.017 3.66543 878.077 4.82804 878.744 5.67562C879.359 6.45569 880.372 6.80072 881.325 6.5607C881.632 6.48569 881.82 6.17066 881.745 5.86313C881.67 5.55561 881.362 5.36808 881.047 5.44309C880.529 5.5706 879.974 5.38309 879.644 4.95555C879.254 4.4605 879.247 3.77794 879.607 3.08037C879.854 2.60783 880.289 2.2553 880.769 2.14279C882.082 1.82776 883.417 2.64533 883.74 3.97295C884.167 5.72062 883.11 7.49078 881.377 7.91832C881.355 7.92583 881.332 7.93332 881.31 7.94083C881.13 8.00833 876.727 9.59098 871.784 5.08306C869.871 3.3579 867.651 1.96277 865.843 1.34771L865.626 1.2652C864.748 0.950171 863.81 0.785156 862.873 0.785156Z" fill="#F5F5F5" fill-opacity="0.5"/>
<path d="M875.264 10.7311C875.339 10.9111 877.049 15.2465 876.644 18.5694C876.449 20.1595 875.542 20.8721 874.731 20.8721C873.921 20.8721 873.014 20.1595 872.819 18.5694C872.406 15.2465 874.124 10.9111 874.199 10.7311C874.289 10.5136 874.499 10.3711 874.731 10.3711C874.964 10.3711 875.174 10.5136 875.264 10.7311ZM875.504 18.4269C875.737 16.5517 875.189 14.2265 874.731 12.7188C874.274 14.2265 873.726 16.5517 873.959 18.4269C874.064 19.2744 874.424 19.7245 874.731 19.7245C875.031 19.7245 875.399 19.2744 875.504 18.4269Z" fill="#F5F5F5" fill-opacity="0.5"/>
<path d="M878.324 10.8959C878.557 10.9484 880.612 11.4359 881.459 12.696C881.857 13.2961 881.782 14.0612 881.279 14.5637C880.769 15.0663 880.027 15.1338 879.427 14.7287C878.167 13.8811 877.687 11.811 877.634 11.5709C877.589 11.3834 877.649 11.1809 877.792 11.0459C877.897 10.9409 878.047 10.8809 878.197 10.8809C878.249 10.8809 878.287 10.8884 878.324 10.8959ZM880.072 13.7836C880.267 13.9111 880.409 13.8211 880.477 13.7536C880.537 13.7011 880.649 13.5436 880.507 13.3336C880.222 12.9061 879.629 12.5685 879.089 12.3435C879.314 12.8986 879.644 13.4911 880.072 13.7836L879.749 14.2562L880.072 13.7836Z" fill="#F5F5F5" fill-opacity="0.5"/>
<path d="M871.656 11.0533C871.791 11.1884 871.851 11.3909 871.814 11.5784C871.761 11.8109 871.281 13.8811 870.021 14.7362C869.421 15.1412 868.678 15.0737 868.168 14.5712C867.666 14.0686 867.591 13.3035 867.988 12.7035C868.828 11.4359 870.891 10.9483 871.123 10.9033C871.161 10.8958 871.206 10.8883 871.243 10.8883C871.401 10.8808 871.551 10.9408 871.656 11.0533ZM869.383 13.7836C869.811 13.4911 870.141 12.8985 870.373 12.3435C869.826 12.5685 869.241 12.906 868.956 13.3336C868.813 13.5436 868.933 13.7011 868.986 13.7536C869.031 13.7986 869.098 13.8511 869.196 13.8511C869.248 13.8511 869.308 13.8286 869.383 13.7836Z" fill="#F5F5F5" fill-opacity="0.5"/>
</svg>
